<svg xmlns="http://www.w3.org/2000/svg" width="256" height="256" viewBox="0 0 100 100"><rect width="100" height="100" rx="20" fill="#7d6ee7"></rect><path fill="#fff" d="M48.85 85L23.15 85Q22.15 85 21.45 84.30Q20.75 83.60 20.75 82.50L20.75 82.50L20.75 17.50Q20.75 16.40 21.45 15.70Q22.15 15 23.15 15L23.15 15L48.35 15Q58.35 15 65.05 18.15Q71.75 21.30 75.30 27.35Q78.85 33.40 79.05 42.30L79.05 42.30Q79.25 46.70 79.25 50Q79.25 53.30 79.05 57.60L79.05 57.60Q78.75 66.90 75.35 73Q71.95 79.10 65.40 82.05Q58.85 85 48.85 85L48.85 85ZM36.65 28L36.65 72L48.35 72Q53.35 72 56.50 70.55Q59.65 69.10 61.25 65.85Q62.85 62.60 62.95 57.40L62.95 57.40Q63.05 54.50 63.10 52.20Q63.15 49.90 63.10 47.60Q63.05 45.30 62.95 42.50L62.95 42.50Q62.75 35 59.10 31.50Q55.45 28 47.85 28L47.85 28L36.65 28Z"></path></svg>